<svg xmlns="http://www.w3.org/2000/svg" viewBox="0 0 1200 680" role="img" aria-label="快速报价资料清单与成本判断界面">
  <rect width="1200" height="680" fill="#f6f9fd"/>
  <rect x="92" y="72" width="1016" height="536" rx="18" fill="#ffffff" stroke="#d9e4f2"/>
  <text x="138" y="132" fill="#13233b" font-size="36" font-weight="900">快速报价输入</text>
  <text x="138" y="172" fill="#536173" font-size="19" font-weight="700">图纸、材料、数量、交期明确时，直接形成报价口径</text>
  <rect x="138" y="224" width="474" height="62" rx="10" fill="#f7fbff" stroke="#dbe7f5"/>
  <text x="164" y="263" fill="#13233b" font-size="20" font-weight="800">2D 图纸 / 3D 模型</text>
  <rect x="138" y="314" width="474" height="62" rx="10" fill="#f7fbff" stroke="#dbe7f5"/>
  <text x="164" y="353" fill="#13233b" font-size="20" font-weight="800">材料：6061 铝合金</text>
  <rect x="138" y="404" width="474" height="62" rx="10" fill="#f7fbff" stroke="#dbe7f5"/>
  <text x="164" y="443" fill="#13233b" font-size="20" font-weight="800">数量：50 件</text>
  <rect x="138" y="494" width="474" height="62" rx="10" fill="#f7fbff" stroke="#dbe7f5"/>
  <text x="164" y="533" fill="#13233b" font-size="20" font-weight="800">后处理 / 检测 / 交期</text>
  <path d="M666 252h108" stroke="#004ac6" stroke-width="8" stroke-linecap="round"/>
  <path d="M752 222l44 34-44 34" fill="none" stroke="#004ac6" stroke-width="8" stroke-linecap="round" stroke-linejoin="round"/>
  <rect x="830" y="190" width="230" height="278" rx="16" fill="#13233b"/>
  <text x="868" y="246" fill="#ffffff" font-size="28" font-weight="900">报价输出</text>
  <text x="868" y="298" fill="#8eb8ff" font-size="20" font-weight="900">成本组成</text>
  <text x="868" y="342" fill="#ffffff" font-size="22" font-weight="800">加工 / 材料 / 后处理</text>
  <text x="868" y="396" fill="#8eb8ff" font-size="20" font-weight="900">交期范围</text>
  <text x="868" y="440" fill="#ffffff" font-size="22" font-weight="800">可制造风险提示</text>
  <rect x="830" y="498" width="230" height="58" rx="10" fill="#004ac6"/>
  <text x="882" y="536" fill="#ffffff" font-size="20" font-weight="900">提交报价需求</text>
</svg>
