<svg xmlns="http://www.w3.org/2000/svg" viewBox="0 0 1200 680" role="img" aria-label="DFM可制造性检查界面">
  <rect width="1200" height="680" fill="#f6f9fd"/>
  <rect x="90" y="72" width="1020" height="536" rx="18" fill="#ffffff" stroke="#d9e4f2"/>
  <rect x="134" y="126" width="502" height="390" rx="14" fill="#f7fbff" stroke="#dbe7f5"/>
  <path d="M268 410V250h190v160z" fill="#dce8f7" stroke="#8aa6c8" stroke-width="5"/>
  <path d="M318 250v-58h90v58" fill="none" stroke="#8aa6c8" stroke-width="5"/>
  <path d="M284 320h162M284 362h162" stroke="#004ac6" stroke-width="7" stroke-linecap="round"/>
  <rect x="694" y="126" width="340" height="76" rx="12" fill="#13233b"/>
  <text x="732" y="174" fill="#ffffff" font-size="26" font-weight="900">制造前风险清单</text>
  <rect x="694" y="238" width="340" height="58" rx="10" fill="#f7fbff" stroke="#dbe7f5"/>
  <text x="724" y="275" fill="#13233b" font-size="20" font-weight="800">壁厚 / 深孔 / 倒角</text>
  <rect x="694" y="324" width="340" height="58" rx="10" fill="#f7fbff" stroke="#dbe7f5"/>
  <text x="724" y="361" fill="#13233b" font-size="20" font-weight="800">装夹 / 公差 / 表面处理</text>
  <rect x="694" y="410" width="340" height="58" rx="10" fill="#f7fbff" stroke="#dbe7f5"/>
  <text x="724" y="447" fill="#13233b" font-size="20" font-weight="800">材料与工艺建议</text>
  <rect x="694" y="496" width="340" height="58" rx="10" fill="#004ac6"/>
  <text x="724" y="533" fill="#ffffff" font-size="20" font-weight="900">输出 DFM 反馈</text>
</svg>
