<svg xmlns="http://www.w3.org/2000/svg" viewBox="0 0 1200 680" role="img" aria-label="2D工程图气泡标注与检测项">
  <rect width="1200" height="680" fill="#f6f9fd"/>
  <rect x="92" y="72" width="1016" height="536" rx="18" fill="#ffffff" stroke="#d9e4f2"/>
  <rect x="148" y="132" width="560" height="424" rx="14" fill="#ffffff" stroke="#d9e4f2"/>
  <path d="M258 386h300v-112h-92v-70H350v70h-92z" fill="#eef5ff" stroke="#8aa6c8" stroke-width="5"/>
  <path d="M302 330h206M302 364h206M350 274v112M466 274v112" stroke="#8aa6c8" stroke-width="4"/>
  <g fill="#004ac6" stroke="#ffffff" stroke-width="5">
    <circle cx="294" cy="248" r="25"/><circle cx="550" cy="274" r="25"/><circle cx="352" cy="430" r="25"/><circle cx="508" cy="430" r="25"/>
  </g>
  <g fill="#ffffff" font-size="18" font-weight="900" text-anchor="middle">
    <text x="294" y="255">01</text><text x="550" y="281">02</text><text x="352" y="437">03</text><text x="508" y="437">04</text>
  </g>
  <rect x="760" y="132" width="300" height="424" rx="14" fill="#13233b"/>
  <text x="802" y="194" fill="#ffffff" font-size="28" font-weight="900">检测清单</text>
  <text x="802" y="256" fill="#8eb8ff" font-size="20" font-weight="900">01 外形尺寸</text>
  <text x="802" y="312" fill="#8eb8ff" font-size="20" font-weight="900">02 孔位距离</text>
  <text x="802" y="368" fill="#8eb8ff" font-size="20" font-weight="900">03 壁厚检查</text>
  <text x="802" y="424" fill="#8eb8ff" font-size="20" font-weight="900">04 关键公差</text>
  <rect x="802" y="476" width="204" height="50" rx="10" fill="#004ac6"/>
  <text x="838" y="509" fill="#ffffff" font-size="18" font-weight="900">导出质检资料</text>
</svg>
