<svg xmlns="http://www.w3.org/2000/svg" viewBox="0 0 1200 680" role="img" aria-label="3D文件格式转换流程">
  <rect width="1200" height="680" fill="#f6f9fd"/>
  <rect x="92" y="72" width="1016" height="536" rx="18" fill="#ffffff" stroke="#d9e4f2"/>
  <text x="140" y="140" fill="#13233b" font-size="36" font-weight="900">3D 文件格式转换</text>
  <text x="140" y="182" fill="#536173" font-size="19" font-weight="700">让设计、报价和制造系统顺畅读取同一份模型资料</text>
  <g fill="#f7fbff" stroke="#dbe7f5" stroke-width="2">
    <rect x="156" y="260" width="150" height="126" rx="14"/>
    <rect x="362" y="260" width="150" height="126" rx="14"/>
    <rect x="688" y="260" width="150" height="126" rx="14"/>
    <rect x="894" y="260" width="150" height="126" rx="14"/>
  </g>
  <text x="200" y="338" fill="#004ac6" font-size="28" font-weight="900">STEP</text>
  <text x="410" y="338" fill="#004ac6" font-size="28" font-weight="900">STL</text>
  <text x="724" y="338" fill="#004ac6" font-size="28" font-weight="900">IGES</text>
  <text x="936" y="338" fill="#004ac6" font-size="28" font-weight="900">OBJ</text>
  <rect x="520" y="228" width="144" height="190" rx="18" fill="#13233b"/>
  <text x="558" y="292" fill="#ffffff" font-size="24" font-weight="900">转换</text>
  <text x="552" y="338" fill="#8eb8ff" font-size="18" font-weight="900">几何检查</text>
  <text x="552" y="372" fill="#8eb8ff" font-size="18" font-weight="900">单位校验</text>
  <path d="M316 324h36M512 324h-36M676 324h-36M884 324h-36" stroke="#004ac6" stroke-width="7" stroke-linecap="round"/>
  <rect x="252" y="474" width="696" height="58" rx="12" fill="#eef5ff" stroke="#d5e5fa"/>
  <text x="334" y="511" fill="#13233b" font-size="20" font-weight="900">输出可用于报价、DFM、工程图和制造系统的模型文件</text>
</svg>
