<svg xmlns="http://www.w3.org/2000/svg" viewBox="0 0 1200 680" role="img" aria-label="图片生成3D模型草案流程">
  <rect width="1200" height="680" fill="#f6f9fd"/>
  <rect x="92" y="72" width="1016" height="536" rx="18" fill="#ffffff" stroke="#d9e4f2"/>
  <text x="140" y="138" fill="#13233b" font-size="36" font-weight="900">图片到 3D 模型草案</text>
  <rect x="146" y="210" width="238" height="292" rx="16" fill="#ffffff" stroke="#d9e4f2"/>
  <rect x="170" y="236" width="190" height="132" rx="10" fill="#eef5ff"/>
  <path d="M204 336l42-58 28 36 24-30 38 52z" fill="#8eb8ff"/>
  <text x="182" y="424" fill="#13233b" font-size="22" font-weight="900">产品图片</text>
  <text x="182" y="456" fill="#536173" font-size="17" font-weight="700">照片 / 草图 / 参考图</text>
  <path d="M426 350h110" stroke="#004ac6" stroke-width="8" stroke-linecap="round"/>
  <path d="M514 322l42 28-42 28" fill="none" stroke="#004ac6" stroke-width="8" stroke-linecap="round" stroke-linejoin="round"/>
  <rect x="612" y="168" width="420" height="376" rx="16" fill="#13233b"/>
  <path d="M780 310l106 58-106 62-106-62z" fill="#8eb8ff"/>
  <path d="M674 368v72l106 62 106-62v-72" fill="none" stroke="#ffffff" stroke-width="5"/>
  <path d="M780 430v72" stroke="#ffffff" stroke-width="5"/>
  <text x="674" y="234" fill="#ffffff" font-size="28" font-weight="900">结构轮廓提取</text>
  <text x="674" y="284" fill="#b7c7dd" font-size="19" font-weight="700">整理外形、功能分区与装配关系</text>
  <text x="674" y="508" fill="#ffffff" font-size="22" font-weight="900">生成可沟通的 3D 方向</text>
</svg>
