<svg xmlns="http://www.w3.org/2000/svg" viewBox="0 0 1200 680" role="img" aria-label="3D模型转2D工程图流程">
  <rect width="1200" height="680" fill="#f6f9fd"/>
  <rect x="90" y="72" width="1020" height="536" rx="18" fill="#ffffff" stroke="#d9e4f2"/>
  <rect x="136" y="140" width="360" height="372" rx="16" fill="#13233b"/>
  <path d="M318 248l116 64-116 66-116-66z" fill="#8eb8ff"/>
  <path d="M202 312v90l116 66 116-66v-90" fill="none" stroke="#ffffff" stroke-width="5"/>
  <path d="M318 378v90" stroke="#ffffff" stroke-width="5"/>
  <text x="194" y="204" fill="#ffffff" font-size="28" font-weight="900">3D 模型</text>
  <path d="M538 326h94" stroke="#004ac6" stroke-width="8" stroke-linecap="round"/>
  <path d="M608 298l42 28-42 28" fill="none" stroke="#004ac6" stroke-width="8" stroke-linecap="round" stroke-linejoin="round"/>
  <rect x="700" y="132" width="346" height="398" rx="16" fill="#f7fbff" stroke="#dbe7f5"/>
  <rect x="742" y="184" width="118" height="90" fill="#ffffff" stroke="#8aa6c8" stroke-width="4"/>
  <rect x="884" y="184" width="118" height="90" fill="#ffffff" stroke="#8aa6c8" stroke-width="4"/>
  <rect x="742" y="312" width="260" height="142" fill="#ffffff" stroke="#8aa6c8" stroke-width="4"/>
  <path d="M766 384h212M766 416h126M742 484h260" stroke="#004ac6" stroke-width="5" stroke-linecap="round"/>
  <text x="742" y="570" fill="#13233b" font-size="26" font-weight="900">视图 / 尺寸 / 孔位 / 公差</text>
</svg>
